<svg width="67" height="64" viewBox="0 0 67 64" fill="none" xmlns="http://www.w3.org/2000/svg">
<path d="M19.4646 12.504C19.2857 12.5599 19.1627 12.627 19.0173 12.6382C16.9706 12.8283 16.8588 12.7277 16.8029 10.6699C16.7582 9.22717 16.568 9.00349 15.1477 8.99231C11.7702 8.98112 8.39275 8.96994 5.02645 8.99231C3.29298 9.00349 2.868 9.46202 2.85681 11.2402C2.84563 26.1705 2.84563 41.1007 2.85681 56.0198C2.85681 57.7644 3.2818 58.1894 5.08237 58.1894C11.7367 58.2006 18.391 58.2006 25.0453 58.1894C28.4228 58.1894 31.8002 58.167 35.1665 58.1559C36.106 58.1559 36.229 58.2565 36.2737 59.1959C36.2961 59.5315 36.2737 59.8558 36.2513 60.1913C36.2178 60.6946 35.9606 60.9853 35.4461 61.0077C35.1106 61.0301 34.7863 61.0301 34.4508 61.0301C24.6091 61.0301 14.7675 61.0413 4.9258 61.0189C4.13176 61.0189 3.29298 60.9294 2.54367 60.6834C1.0115 60.1689 0.150359 59.0282 0.00497053 57.3954C-0.00621317 56.8809 0.00497053 56.3553 0.00497053 55.8408C0.00497053 41.0001 0.00497053 26.1705 0.00497053 11.3409C0.00497053 11.0501 0.00497053 10.7705 0.00497053 10.4797C0.0497053 7.7621 1.51477 6.29703 4.26596 6.27467C7.83356 6.2523 11.4012 6.27467 14.9576 6.26348C16.6016 6.26348 16.7693 6.08454 16.7917 4.48528C16.8029 3.38927 16.7693 2.29327 16.8029 1.20845C16.8253 0.190734 16.9595 0.0677131 17.9548 0.0117946C18.1897 0.000610867 18.4357 0.0117946 18.6706 0.0117946C19.3975 -0.0217565 19.6995 0.358489 19.6883 1.05188C19.6995 2.23735 19.6995 3.42282 19.7107 4.6083C19.733 6.05099 19.9343 6.26348 21.3882 6.26348C27.953 6.27467 34.5067 6.27467 41.0715 6.26348C42.5813 6.26348 42.7938 6.02863 42.8162 4.50764C42.8274 3.36691 42.7938 2.22617 42.8385 1.08543C42.8721 0.123632 43.0846 -0.0105728 44.2477 0.000610867C45.3996 0.0117946 45.6121 0.157183 45.6457 1.11898C45.6792 2.30445 45.6345 3.50111 45.668 4.68658C45.7016 5.99507 45.9588 6.26348 47.3008 6.27467C51.0138 6.29703 54.7156 6.3194 58.4286 6.27467C60.5312 6.24112 61.7949 7.49369 62.287 8.86929C62.4436 9.30545 62.533 9.79753 62.533 10.2561C62.5442 17.1005 62.5554 23.9449 62.5442 30.7893C62.5442 32.0867 61.2246 32.7912 60.0838 32.0978C59.8825 31.9748 59.7259 31.6617 59.6812 31.4044C59.6141 30.9906 59.6365 30.5545 59.6365 30.1295C59.6365 24.0456 59.6365 17.9616 59.6365 11.8777C59.6365 11.4527 59.6588 11.0166 59.6253 10.5916C59.5582 9.62978 59.1891 9.22717 58.2609 9.05941C57.9365 9.00349 57.601 9.00349 57.2655 9.00349C54.0334 9.00349 50.8013 8.99231 47.5693 9.00349C45.9141 9.01467 45.7128 9.21598 45.6904 10.9159C45.6904 10.9606 45.6904 11.0166 45.6904 11.0613C45.668 12.5264 44.7062 13.1862 43.3866 12.5935C43.1517 12.4928 42.9392 12.1126 42.8945 11.833C42.805 11.2738 42.8609 10.6922 42.8274 10.1219C42.7938 9.45084 42.4136 9.08178 41.7537 9.02586C41.3735 9.00349 40.9932 8.99231 40.613 8.99231C34.3837 8.99231 28.1543 8.99231 21.925 8.99231C21.6902 8.99231 21.4441 8.98112 21.2093 8.99231C20.0238 9.05941 19.8113 9.26072 19.7554 10.435C19.7218 11.0054 19.7107 11.5757 19.6771 12.1349C19.6324 12.2356 19.5541 12.3139 19.4646 12.504Z" fill="#25758A"/>
<path d="M40.2338 50.3832C39.999 43.9749 45.4902 37.343 53.2964 37.3765C60.5994 37.4101 66.4708 43.2256 66.4149 50.5174C66.3702 57.6861 60.8342 63.6135 53.2293 63.6023C45.4678 63.5911 39.999 57.1717 40.2338 50.3832ZM63.4512 50.5397C63.7644 44.9926 58.6534 40.1948 53.3076 40.2396C47.7046 40.2843 43.0298 44.9143 43.0745 50.5174C43.1192 56.2546 47.6822 60.7617 53.3411 60.7617C58.9777 60.7505 63.6749 55.8408 63.4512 50.5397Z" fill="#25758A"/>
<path d="M10.3842 21.7641C11.4579 21.7641 12.2967 21.7641 13.1466 21.7641C14.5669 21.7641 15.9873 21.7753 17.4188 21.7641C18.0227 21.7641 18.4477 21.9542 18.4477 22.6364C18.4477 24.7725 18.4477 26.9086 18.4365 29.0335C18.4365 29.5256 18.2128 29.8611 17.676 29.8611C15.3163 29.8611 12.9565 29.8611 10.4513 29.8611C10.2277 27.1658 10.3171 24.5936 10.3842 21.7641ZM15.4505 25.779C15.4393 24.9626 15.1149 24.6383 14.3321 24.6607C13.5716 24.683 13.2473 25.0297 13.2473 25.835C13.2473 26.6402 13.5492 26.931 14.3768 26.9198C15.1932 26.9086 15.4616 26.6178 15.4505 25.779Z" fill="#25758A"/>
<path d="M10.6509 37.41C10.8075 37.3876 11.0312 37.3317 11.2548 37.3317C13.2455 37.3317 15.2362 37.3317 17.2381 37.3317C18.1999 37.3317 18.4124 37.4436 18.4348 38.3047C18.4795 40.3401 18.446 42.3868 18.446 44.4222C18.446 45.0597 18.1664 45.3952 17.5065 45.3952C15.4152 45.384 13.3238 45.3952 11.2436 45.384C10.7628 45.384 10.3601 45.205 10.3713 44.6682C10.3937 42.3085 10.4496 39.9375 10.5055 37.5778C10.4943 37.5442 10.5503 37.5107 10.6509 37.41ZM13.2567 41.4585C13.2791 42.219 13.6705 42.5881 14.431 42.5657C15.1468 42.5433 15.4711 42.1519 15.4487 41.3243C15.4264 40.5191 15.102 40.2171 14.2968 40.2507C13.5475 40.273 13.2343 40.6421 13.2567 41.4585Z" fill="#25758A"/>
<path d="M44.1596 29.8163C44.1596 28.698 44.1596 27.7585 44.1596 26.8191C44.1596 25.533 44.1373 24.258 44.1708 22.9719C44.1932 21.9318 44.3274 21.7752 45.3004 21.7641C47.2016 21.7305 49.0917 21.7305 50.9929 21.7641C51.9994 21.7864 52.1448 21.9318 52.156 22.9495C52.1784 24.8508 52.156 26.7408 52.1672 28.642C52.1672 29.2795 52.033 29.8051 51.2613 29.8051C49.0022 29.8275 46.7319 29.8163 44.1596 29.8163ZM49.293 25.779C49.2594 25.0185 48.8904 24.6606 48.1187 24.6718C47.3694 24.683 47.0227 25.0521 47.0227 25.8461C47.0339 26.629 47.3694 26.9421 48.1858 26.9197C49.0022 26.8974 49.3153 26.5619 49.293 25.779Z" fill="#25758A"/>
<path d="M35.1571 41.4363C35.1571 42.4316 35.1571 43.4381 35.1571 44.4335C35.1571 45.071 34.8439 45.3953 34.1953 45.3953C32.1934 45.3953 30.2027 45.3953 28.2008 45.3953C27.485 45.3953 27.1831 45.0039 27.1831 44.3105C27.1831 42.4092 27.1607 40.508 27.1943 38.6068C27.2166 37.6114 27.4179 37.4101 28.3686 37.3878C30.3145 37.343 32.2717 37.3542 34.2176 37.3318C34.911 37.3207 35.1459 37.7009 35.1459 38.3048C35.1682 39.3449 35.1571 40.3962 35.1571 41.4363ZM32.3947 41.3244C32.3723 40.5863 31.9809 40.2284 31.198 40.2396C30.404 40.2508 30.0349 40.5975 30.0461 41.358C30.0573 42.1408 30.527 42.5882 31.3099 42.5434C32.0256 42.5099 32.4171 42.0625 32.3947 41.3244Z" fill="#25758A"/>
<path d="M35.1559 29.8387C33.9816 29.8387 33.0422 29.8387 32.1028 29.8387C30.8614 29.8387 29.6312 29.8611 28.3898 29.8275C27.3721 29.8052 27.2043 29.6486 27.1931 28.6644C27.1596 26.7632 27.1596 24.862 27.1931 22.9607C27.2043 21.9542 27.3721 21.7976 28.3786 21.7753C30.2798 21.7417 32.1811 21.7641 34.0823 21.7641C34.6638 21.7641 35.1447 21.9207 35.1447 22.614C35.1559 24.9291 35.1559 27.2553 35.1559 29.8387ZM31.1633 26.9086C32.0245 26.9309 32.4383 26.5731 32.4271 25.7902C32.4271 25.0745 32.0357 24.683 31.2864 24.6607C30.4811 24.6383 30.045 25.0297 30.0338 25.8126C30.0226 26.5619 30.3469 26.8862 31.1633 26.9086Z" fill="#25758A"/>
<path d="M51.8878 47.2071C51.8878 46.5473 51.8543 45.8762 51.899 45.2164C51.9438 44.2882 52.078 44.1651 52.995 44.1092C53.1404 44.098 53.2746 44.098 53.42 44.1092C54.5943 44.1316 54.7397 44.2546 54.7621 45.4065C54.7844 46.167 54.7397 46.9275 54.7732 47.6768C54.818 48.8735 55.0081 49.0636 56.2047 49.0972C57.01 49.1195 57.8152 49.0636 58.6204 49.1195C59.4592 49.1754 59.6046 49.3879 59.6493 50.3162C59.6941 51.4345 59.5039 51.8372 58.6875 51.8819C57.2225 51.949 55.7574 51.9154 54.2812 51.8819C54.0351 51.8707 53.5878 51.6582 53.5766 51.524C53.5207 50.3274 51.5188 50.5398 51.8543 49.0636C51.9885 48.4597 51.8767 47.8222 51.8878 47.2071C51.8878 47.2071 51.8767 47.2071 51.8878 47.2071Z" fill="#25758A"/>
</svg>
