<svg width="64" height="59" viewBox="0 0 64 59" fill="none" xmlns="http://www.w3.org/2000/svg">
<path d="M56.4384 49.0738C58.0425 49.0738 59.4815 49.0738 60.9206 49.0738C61.3924 49.0738 61.817 49.1682 62.2416 49.4041C62.9729 49.8287 63.3739 50.4421 63.256 51.2913C63.0437 52.8011 62.6898 54.2873 61.9113 55.632C60.9677 57.2597 59.5051 58.0618 57.6651 58.0854C54.3388 58.1325 50.989 58.2269 47.6628 58.0618C43.7704 57.8495 39.9015 57.8495 36.0091 57.9674C29.1443 58.2033 22.3031 57.991 15.4619 58.109C14.4947 58.1325 13.6455 57.8259 12.9142 57.2361C11.3808 56.0094 10.39 54.4289 10.1541 52.4237C10.0597 51.6452 9.98896 50.8431 9.98896 50.0646C9.8946 46.2666 9.70588 42.4685 9.82383 38.6941C10.1305 29.0456 9.87101 19.4208 9.96537 9.77231C9.96537 9.37127 9.96537 8.99382 9.96537 8.49843C9.54074 8.49843 9.21048 8.49843 8.88021 8.49843C6.75708 8.49843 4.65754 8.49843 2.53441 8.49843C2.2985 8.49843 2.03901 8.52202 1.8031 8.47484C0.81231 8.33329 -0.107714 7.71995 0.0102376 6.54043C0.104599 5.76195 0.0810086 4.95987 0.19896 4.18139C0.434864 2.55366 1.44925 1.49209 2.88826 0.80797C3.94983 0.312572 5.05858 0.00589759 6.23809 0.00589759C20.7226 0.00589759 35.2071 -0.0176928 49.6915 0.0294879C52.2393 0.0294879 54.1501 1.32696 55.4476 3.52086C56.2025 4.79474 56.462 6.21016 56.462 7.64917C56.462 21.0485 56.462 34.4714 56.462 47.8707C56.4384 48.2246 56.4384 48.602 56.4384 49.0738ZM12.1121 3.21419C12.9378 4.84192 12.7019 6.46966 12.7019 8.09739C12.7254 21.6383 12.7019 35.1791 12.7254 48.6964C12.7254 49.5692 12.749 50.4657 12.9142 51.3385C13.2208 52.9898 14.1173 54.193 15.7922 54.6884C16.1932 54.8063 16.5471 54.7827 16.9245 54.5468C17.821 53.9806 18.3635 53.155 18.741 52.1878C19.0241 51.4801 19.2364 50.7488 19.4723 50.0175C19.7318 49.239 19.8969 49.121 20.7226 49.0974C20.9113 49.0974 21.1 49.0974 21.2652 49.0974C31.5741 49.0974 41.9067 49.0974 52.2157 49.0738C52.4988 49.0738 52.7583 49.0738 53.0414 49.0738C53.466 49.0738 53.6547 48.8615 53.6311 48.4369C53.6311 48.2954 53.6311 48.1302 53.6311 47.9887C53.6311 35.014 53.6311 22.0157 53.6311 9.04101C53.6311 8.38048 53.5368 7.69636 53.3716 7.05942C53.1829 6.28093 52.8291 5.59681 52.2629 4.98346C51.0834 3.68599 49.5736 3.1906 47.8987 3.1906C36.2922 3.16701 24.6858 3.1906 13.0793 3.1906C12.8434 3.16701 12.5367 3.1906 12.1121 3.21419ZM59.8118 52.0462C59.34 52.0462 59.0333 52.0226 58.7266 52.0462C57.6651 52.0934 56.6035 52.2114 55.542 52.2114C44.8555 52.235 34.1691 52.2114 23.4826 52.2114C23.1996 52.2114 22.9165 52.1878 22.657 52.235C22.4683 52.2821 22.2088 52.4001 22.1616 52.5416C21.8313 53.2965 21.5718 54.0986 21.2416 54.9714C21.6662 54.9714 22.02 54.9714 22.3503 54.9714C33.2727 54.9714 44.2186 54.9714 55.1409 54.9714C55.6599 54.9714 56.1789 55.0186 56.6979 54.9478C57.1697 54.8771 57.6415 54.7355 58.0661 54.5232C59.0569 54.075 59.3164 53.1078 59.8118 52.0462ZM9.6587 5.83272C9.42279 5.43168 9.25766 5.1486 9.04535 4.91269C8.33764 4.11062 7.34684 3.78036 6.40323 3.37932C5.78988 3.14342 5.27089 3.23778 4.7519 3.54445C3.92624 4.03985 3.47802 4.79474 3.38366 5.83272C5.45961 5.83272 7.48838 5.83272 9.6587 5.83272Z" fill="#25758A"/>
<path d="M43.2046 42.0911C42.0959 43.0583 41.0579 43.9548 40.0199 44.8512C39.4773 45.323 39.0999 45.3702 38.5809 44.8748C37.944 44.285 37.5193 43.5537 37.5193 42.6337C37.5193 40.2511 37.5193 37.8685 37.5193 35.4622C37.5193 34.8253 37.4014 34.2827 37.0475 33.7402C36.269 32.6078 35.8444 31.2632 35.9388 29.9185C36.1275 27.2528 37.2362 25.2948 40.0907 24.2332C42.4497 23.3604 44.5257 23.9737 46.4601 25.3892C47.8283 26.38 48.7955 27.7246 49.2673 29.3523C49.7863 31.216 49.6448 33.056 48.536 34.7074C48.1822 35.2499 48.017 35.7689 48.0406 36.4059C48.0642 38.7649 48.0406 41.1239 48.0406 43.483C48.0406 43.6953 48.0406 43.9076 48.0406 44.1199C48.0642 44.5209 47.8755 44.8276 47.5216 45.0163C47.1442 45.2051 46.7903 45.0635 46.5073 44.8512C46.0119 44.4502 45.5401 44.0255 45.0447 43.6009C44.4313 43.1055 43.8415 42.6337 43.2046 42.0911ZM42.1902 34.5658C42.8979 34.613 43.6292 34.4243 44.2898 33.9761C45.5636 33.1032 46.3657 31.9709 46.5544 30.3903C46.8375 28.0313 45.4693 26.9933 43.6292 26.8282C41.5297 26.6395 39.383 28.2436 38.9112 30.2488C38.3922 32.5134 39.6189 34.5894 42.1902 34.5658ZM45.4221 41.006C45.4221 40.2747 45.4221 39.7321 45.4221 39.1659C45.4221 38.6234 45.3985 38.1044 45.3749 37.4438C43.5113 38.1515 41.8364 37.7741 40.1615 37.0192C40.1615 38.0336 40.1615 39.0008 40.1615 40.086C40.6333 39.6849 41.0107 39.4018 41.3646 39.0716C42.0251 38.4818 42.2138 38.4346 42.9451 38.93C43.181 39.0716 43.3697 39.2603 43.5821 39.449C44.1718 39.9208 44.7144 40.3926 45.4221 41.006Z" fill="#25758A"/>
<path d="M33.6505 16.7316C38.7696 16.7316 43.8651 16.7316 48.9842 16.7316C50.1873 16.7316 51.1545 17.6988 51.1309 18.8783C51.1309 19.4917 50.9894 19.704 50.4232 19.8927C50.0694 19.9871 49.7155 20.0578 49.3381 20.0578C39.4773 20.0578 29.6401 20.0578 19.7793 20.0578C18.2931 20.0578 17.3259 19.3501 17.0193 18.0055C16.8777 17.3685 17.2316 16.826 17.8685 16.7552C18.1516 16.708 18.4111 16.7316 18.6942 16.7316C23.6717 16.7316 28.6729 16.7316 33.6505 16.7316Z" fill="#25758A"/>
<path d="M33.6249 11.7773C28.6709 11.7773 23.717 11.7773 18.763 11.7773C18.4799 11.7773 18.1968 11.8009 17.9373 11.7537C16.8993 11.565 16.5219 10.4798 17.1353 9.63058C17.7014 8.8521 18.5743 8.80492 19.4235 8.66338C19.6122 8.63979 19.801 8.66338 19.9661 8.66338C29.6853 8.66338 39.4281 8.66338 49.1474 8.66338C49.572 8.66338 49.9966 8.75774 50.4213 8.82851C51.2233 8.94646 51.648 10.3855 50.9402 10.9988C50.3269 11.5414 49.6428 11.8009 48.8643 11.8009C46.6704 11.8009 44.4529 11.8009 42.259 11.8009C39.381 11.7773 36.5029 11.7773 33.6249 11.7773Z" fill="#25758A"/>
<path d="M24.8509 32.7258C26.9976 32.7258 29.1208 32.7258 31.2675 32.7258C32.5886 32.7258 33.6501 33.7874 33.6501 35.1084C33.6501 35.6038 33.3199 36.052 32.8009 36.17C32.565 36.2172 32.3291 36.2172 32.0696 36.2172C27.8469 36.2172 23.6478 36.2172 19.4251 36.2172C18.1513 36.2172 17.1133 35.132 17.1133 33.8817C17.1133 33.0089 17.3964 32.7022 18.2456 32.7022C20.4631 32.7022 22.657 32.7258 24.8509 32.7258Z" fill="#25758A"/>
<path d="M25.8431 44.1201C23.72 44.1201 21.6204 44.1201 19.4973 44.1201C18.3649 44.1201 17.3506 43.3652 17.0439 42.3036C16.8316 41.5959 17.1618 41.0061 17.8931 40.841C18.1054 40.7938 18.3178 40.8174 18.5301 40.8174C22.682 40.8174 26.8575 40.8174 31.0094 40.8174C32.0945 40.8174 32.8966 41.2656 33.4156 42.1857C33.4392 42.2328 33.4864 42.28 33.51 42.3508C33.8638 43.2472 33.793 44.1437 32.4484 44.1437C30.2545 44.1201 28.037 44.1201 25.8431 44.1201Z" fill="#25758A"/>
<path d="M25.132 24.8228C27.3023 24.8228 29.4726 24.8228 31.6429 24.8228C32.7517 24.8228 33.6245 25.6485 33.6717 26.6393C33.6953 27.3706 33.365 27.7952 32.6573 27.9132C32.5158 27.9368 32.3506 27.9368 32.2091 27.9368C27.8685 27.9368 23.5042 27.9368 19.1636 27.9368C18.1021 27.9368 17.3943 27.4414 17.0641 26.4978C16.7574 25.6721 17.182 24.9408 18.0549 24.8228C18.2908 24.7993 18.5503 24.7993 18.7862 24.7993C20.8857 24.8228 23.0089 24.8228 25.132 24.8228Z" fill="#25758A"/>
</svg>
