<svg width="47" height="45" viewBox="0 0 47 45" fill="none" xmlns="http://www.w3.org/2000/svg">
<path d="M40.9619 20.4443V41.0518C40.9619 42.1386 40.5184 43.1277 39.804 43.8421L39.739 43.9012C39.0294 44.5799 38.0682 45 37.014 45H9.61627C8.52948 45 7.54038 44.5565 6.82598 43.8421L6.76684 43.7771C6.0868 43.0675 5.66667 42.1049 5.66667 41.0521V20.4428L1.68749 24.5135C1.30896 24.9023 0.686331 24.9113 0.297487 24.5327C-0.0913574 24.1542 -0.100291 23.5316 0.278234 23.1427L5.90151 17.3892C5.93108 17.3552 5.96202 17.3242 5.99469 17.2929L22.6073 0.297487C22.9858 -0.0913574 23.6084 -0.100291 23.9973 0.278234C31.5145 7.79548 38.9076 15.5336 46.3457 23.1415C46.7242 23.5304 46.7153 24.153 46.3264 24.5315C45.9376 24.9101 45.315 24.9011 44.9364 24.5123L40.959 20.4431L40.9619 20.4443ZM13.8924 43.0295V28.7801C13.8924 27.714 14.3287 26.744 15.0294 26.0417C15.7304 25.3407 16.7003 24.9047 17.7678 24.9047H28.861C29.9271 24.9047 30.897 25.341 31.5994 26.0435C32.3018 26.7458 32.7381 27.7157 32.7381 28.7805V43.0299H37.0143C37.5376 43.0299 38.0155 42.8243 38.3703 42.4932L38.4115 42.4503C38.7694 42.0924 38.9926 41.5969 38.9926 41.0544V18.4297L23.3173 2.39269L7.64209 18.4288V41.0544C7.64209 41.5794 7.84631 42.057 8.17739 42.4073L8.22312 42.4503C8.58102 42.8082 9.07644 43.0313 9.61893 43.0313H13.8938L13.8924 43.0295ZM30.7664 43.0295V28.7801C30.7664 28.2595 30.5505 27.782 30.2046 27.4361C29.8601 27.0916 29.3826 26.8757 28.8607 26.8757H17.7674C17.2442 26.8757 16.768 27.0902 16.4235 27.4361C16.079 27.7806 15.8631 28.2581 15.8631 28.7801V43.0295H30.7664Z" fill="#25758A"/>
</svg>
