<svg width="65" height="61" viewBox="0 0 65 61" fill="none" xmlns="http://www.w3.org/2000/svg">
<path d="M21.2686 14.2791C22.7906 14.2791 24.3125 14.2154 25.8131 14.2791C32.4797 14.5765 38.1603 12.1762 43.2407 8.11912C45.2128 6.52602 47.0349 4.74174 48.9213 3.02118C49.6287 2.38394 50.3146 1.72545 51.022 1.08821C53.9588 -1.50325 58.096 0.939519 58.3532 4.16822C58.4175 5.12408 58.4175 6.0587 58.4175 7.01457C58.4175 10.8168 58.4818 14.619 58.3961 18.4212C58.3532 19.9506 58.8677 20.8003 60.2825 21.565C64.8484 23.9652 66.3275 28.872 63.7122 33.0141C62.9405 34.2248 61.7401 35.3719 60.4539 36.0304C58.8462 36.8588 58.3318 37.8996 58.3746 39.5989C58.4604 43.5498 58.3961 47.522 58.3961 51.4729C58.3961 52.2588 58.4175 53.066 58.2889 53.8307C57.6458 57.4417 53.6158 58.8862 50.8291 56.4859C47.6994 53.7882 44.7412 50.8781 41.4829 48.3504C37.5601 45.2916 32.9727 43.7198 27.9781 43.4224C24.8913 43.2312 24.3983 43.7198 24.977 46.7785C25.6201 50.1984 26.4561 53.5758 27.2064 56.9744C27.335 57.5055 27.528 58.0365 27.5923 58.5888C27.7852 60.1182 27.2278 60.8616 25.663 60.9466C23.7552 61.0528 21.8259 60.9678 19.9181 60.9678C18.5676 60.9678 17.7316 60.0757 16.9813 59.1411C14.6662 56.3584 12.9728 53.2359 11.708 49.8798C11.065 48.1805 10.4862 46.4387 10.1003 44.6544C9.77878 43.1887 8.96421 42.4028 7.69947 41.6594C3.47654 39.2166 0.732707 35.6905 0.132494 30.7413C-0.596337 24.7299 1.69734 20.0781 6.62766 16.6582C8.8999 15.0651 11.4937 14.3216 14.3018 14.2791C16.6384 14.2791 18.9535 14.3004 21.2686 14.2791C21.2686 14.3004 21.2686 14.3004 21.2686 14.2791ZM53.7444 54.0219C55.2878 53.066 54.9234 51.7703 54.9234 50.6445C54.9448 36.1578 54.9448 21.6924 54.9448 7.20574C54.9448 6.5685 55.0091 5.91002 54.8591 5.31525C54.7305 4.76298 54.3875 4.25318 53.9373 3.3398C52.4154 4.80546 51.2149 6.03746 49.9502 7.22698C44.6555 12.1975 38.8248 16.2334 31.4722 17.5928C29.6716 17.9327 29.5858 18.0814 29.5858 19.9931C29.5644 25.8557 29.5644 31.6971 29.5858 37.5598C29.5858 39.7051 29.7144 39.8751 31.7723 40.2574C37.7744 41.362 42.812 44.2721 47.3136 48.223C49.4357 50.1134 51.5365 52.0464 53.7444 54.0219ZM25.7273 29.0419C25.7273 25.9619 25.7702 22.8607 25.7059 19.7807C25.6844 18.1238 25.4486 17.784 24.0124 17.8052C20.1968 17.8689 16.3597 17.9327 12.544 18.23C9.77878 18.4425 7.61373 20.0143 5.98457 22.2022C3.32649 25.7495 2.9192 29.6155 4.78415 33.6301C6.69197 37.7297 10.1861 39.5777 14.5162 39.8751C17.5387 40.0875 20.5826 39.96 23.6266 39.9176C25.4701 39.8963 25.6844 39.6839 25.7273 37.8359C25.7702 34.9046 25.7273 31.9733 25.7273 29.0419ZM14.1946 43.4436C14.0017 44.1021 13.8945 44.2508 13.916 44.3995C14.8806 48.8814 16.767 52.9386 19.5966 56.5496C20.5397 57.7391 21.7187 57.7391 23.2407 57.1019C23.0907 56.2522 22.9406 55.4238 22.7906 54.5954C22.319 52.1101 21.8474 49.6249 21.3758 47.1396C21.2257 46.29 21.2043 45.3766 20.9042 44.5907C20.7112 44.1234 20.0896 43.5286 19.618 43.4861C17.8174 43.3799 15.9953 43.4436 14.1946 43.4436ZM58.5676 32.5893C60.6683 31.5697 61.3757 30.3589 61.2042 28.4047C61.0542 26.6841 60.3039 25.7495 58.5461 25.3247C58.3961 27.725 58.3532 30.104 58.5676 32.5893Z" fill="#25758A"/>
</svg>
