<svg width="82" height="64" viewBox="0 0 82 64" fill="none" xmlns="http://www.w3.org/2000/svg">
<path d="M71.5141 30.2955C74.7679 32.5527 74.7679 32.5527 74.7679 36.3883C74.7679 38.0906 74.7679 39.7929 74.7679 41.5059C75.215 41.8184 75.5813 42.0608 75.9315 42.3194C78.0701 43.8978 78.7112 45.8263 77.553 48.1805C76.9012 49.5003 76.8688 50.707 77.1274 52.0645C77.3968 53.4705 77.5907 54.8981 77.7307 56.3203C77.8977 57.9902 77.219 59.0569 75.6729 59.6925C74.3692 60.2312 73.0494 60.2366 71.735 59.741C70.0866 59.1215 69.3593 57.9633 69.5263 56.1802C69.6233 55.1082 69.7149 54.0254 69.9573 52.9857C70.3936 51.1164 70.4313 49.4195 69.5155 47.561C68.5836 45.6647 69.3809 43.5853 71.2825 42.4541C72.5107 41.7268 72.8124 40.8649 72.7693 39.6043C72.7154 38.0798 72.7962 36.5499 72.7424 35.0307C72.6616 32.7089 70.0596 31.1628 67.9856 32.1702C67.6624 32.3264 67.3661 32.5527 67.0321 32.6712C65.346 33.2638 64.7911 34.4005 64.8557 36.1943C64.985 39.8683 64.8342 43.553 64.915 47.2323C64.9581 49.1447 64.2739 50.3676 62.5663 51.3534C55.881 55.2052 49.2549 59.1592 42.645 63.1402C41.3306 63.9321 40.264 63.9591 38.9334 63.1618C32.2427 59.1431 25.5304 55.1621 18.7697 51.2565C17.1482 50.3191 16.5718 49.1286 16.6203 47.3132C16.7173 43.7254 16.5072 40.1269 16.7011 36.5499C16.8196 34.4058 16.0008 33.3338 14.1584 32.418C10.2367 30.4518 6.42265 28.2539 2.55476 26.1691C1.25649 25.4688 -0.0471715 24.7361 0.00131176 23.0284C0.049795 21.3477 1.36423 20.6528 2.6625 19.9524C14.4332 13.6119 26.2092 7.28754 37.926 0.860814C39.9623 -0.259687 41.6053 -0.302784 43.6686 0.828492C55.3045 7.22289 67.0052 13.4934 78.6842 19.807C80.031 20.5342 81.5663 21.1915 81.6094 23.0015C81.6525 24.9516 80.0526 25.6573 78.6142 26.4277C76.3355 27.6505 74.0676 28.9003 71.5141 30.2955ZM78.5119 23.0877C77.8493 22.6621 77.4345 22.3551 76.9819 22.1126C65.4753 15.8637 53.9524 9.64167 42.4726 3.34962C41.0451 2.5685 39.9892 2.93482 38.7394 3.61359C30.4757 8.12253 22.1797 12.5884 13.9052 17.0758C10.3713 18.9882 6.84823 20.9221 2.86721 23.0931C15.7207 30.1501 28.2509 36.8677 40.8296 43.6715C49.2334 39.1195 57.5563 34.6052 66.1486 29.9508C65.249 29.3905 64.6672 28.9919 64.0531 28.6579C62.006 27.5374 59.9482 26.4438 57.8957 25.3341C57.4216 25.0809 56.8937 24.8654 56.522 24.4991C56.258 24.2405 56.2203 23.7557 56.0857 23.3732C56.5436 23.2547 57.0015 23.0446 57.4594 23.0446C57.7826 23.0446 58.1058 23.3247 58.4236 23.4971C60.9501 24.86 63.5144 26.1529 65.987 27.6128C67.5169 28.5178 68.8098 28.7764 70.4206 27.6936C72.1983 26.4977 74.2022 25.6411 76.0877 24.6068C76.8527 24.1813 77.5745 23.6803 78.5119 23.0877ZM19.6963 35.9196C19.5885 37.0347 19.4646 37.805 19.4539 38.57C19.4269 40.9942 19.5455 43.4183 19.4108 45.8371C19.303 47.7118 20.068 48.7569 21.6572 49.6727C27.6475 53.1096 33.5571 56.6812 39.5044 60.1935C39.9515 60.4575 40.4633 60.6245 40.9643 60.8454C47.5149 56.9667 53.9847 53.1096 60.4869 49.3064C61.5535 48.6815 61.9737 47.9003 61.9521 46.6936C61.9037 43.7362 61.9468 40.7733 61.9198 37.8104C61.9144 37.3041 61.7367 36.7977 61.5858 36.0112C60.5461 36.5122 59.6627 36.9054 58.8115 37.3579C53.5915 40.1484 48.3445 42.8904 43.1783 45.7779C41.5084 46.7098 40.1454 46.7529 38.4539 45.8102C33.1261 42.8419 27.723 40.0137 22.3413 37.1478C21.5925 36.7492 20.7899 36.426 19.6963 35.9196ZM75.0803 57.5485C75.6244 55.2321 75.0211 53.352 74.6278 51.4719C74.5686 51.181 74.0191 50.8093 73.6905 50.8093C73.3619 50.804 72.7908 51.1757 72.7424 51.4558C72.3868 53.4113 71.6003 55.356 72.3707 57.5539C73.2595 57.5485 74.0891 57.5485 75.0803 57.5485ZM73.6474 48.2667C74.741 48.2882 75.7214 47.3778 75.7753 46.2896C75.8291 45.1691 74.9887 44.2372 73.8521 44.1564C72.5915 44.0648 71.5734 44.9913 71.5895 46.2196C71.6057 47.3132 72.543 48.2505 73.6474 48.2667Z" fill="#25758A"/>
</svg>
