<svg width="58" height="58" viewBox="0 0 58 58" fill="none" xmlns="http://www.w3.org/2000/svg">
<path d="M23.1539 18.876C24.8817 17.995 26.6896 17.5487 28.6234 17.5373C30.5686 17.5373 32.365 18.0522 34.0814 18.979C31.7929 16.6676 30.6029 13.8986 30.7173 10.6375C30.8318 7.3764 32.1591 4.66455 34.6535 2.57059C39.0016 -1.0681 45.1233 -0.713385 49.0138 2.81088C51.4396 5.00782 52.7097 7.76545 52.6868 11.0494C52.6639 14.3219 51.3709 17.0567 48.9451 19.288C49.071 19.3795 49.1511 19.4596 49.2541 19.5168C52.3206 21.2904 54.5519 23.7963 55.9135 27.0574C56.4513 28.3504 56.8289 29.7006 56.9548 31.108C57.0006 31.6458 57.0463 32.1836 57.0463 32.7328C57.0578 34.2546 57.0463 35.7765 57.0578 37.2983C57.0578 37.9849 56.7832 38.5455 56.2683 39.0032C55.8334 39.3808 55.3185 39.5067 54.7693 39.541C54.5748 39.5525 54.3803 39.541 54.1857 39.541C50.3869 39.541 46.588 39.541 42.7891 39.541C41.8279 39.541 40.8668 39.541 39.9056 39.541C39.7912 39.541 39.6653 39.5525 39.4937 39.5639C39.7683 39.8843 40.0086 40.1589 40.2489 40.445C41.7593 42.2071 42.8234 44.221 43.4184 46.4751C43.7617 47.7567 43.9333 49.0726 43.9219 50.3999C43.9104 51.876 43.899 53.352 43.9219 54.8281C43.9448 56.0639 42.7776 57.0594 41.7478 57.0365C40.1459 57.0022 38.5554 57.0251 36.9535 57.0251C29.8935 57.0251 22.845 57.0251 15.785 57.0251C15.4074 57.0251 15.0183 57.025 14.6751 56.9106C13.7597 56.6131 13.1647 55.7778 13.1647 54.8167C13.1532 53.1575 13.1189 51.4984 13.1761 49.8392C13.2448 47.8826 13.6796 45.9946 14.4805 44.1981C15.2357 42.5046 16.2427 40.9828 17.5586 39.6669C17.5929 39.6326 17.6158 39.5982 17.6615 39.5296C17.4212 39.5296 17.2038 39.5296 16.9864 39.5296C12.1349 39.5296 7.28327 39.5296 2.42024 39.5296C1.55062 39.5296 0.829744 39.2206 0.360605 38.454C0.143199 38.0993 0.0173329 37.7217 0.0173329 37.2983C0.0173329 35.6048 -0.0284368 33.9228 0.0287753 32.2293C0.0974298 30.3299 0.520799 28.5105 1.28744 26.7599C2.20283 24.6888 3.50727 22.9038 5.18931 21.3934C6.03604 20.6382 6.96288 19.9859 7.94693 19.4367C8.00414 19.4024 8.07279 19.3566 8.22155 19.2536C8.08424 19.1621 7.96981 19.1049 7.88972 19.0248C6.12758 17.3542 4.99478 15.3403 4.57141 12.9489C4.11372 10.1455 4.61718 7.49083 6.1848 5.06504C7.76385 2.6278 9.96079 1.0373 12.7871 0.350759C16.2312 -0.484537 19.4008 0.202008 22.2042 2.36462C24.5041 4.1382 25.8658 6.51822 26.312 9.40171C26.5523 10.9922 26.4493 12.5598 26.0031 14.0931C25.7399 15.0085 25.3737 15.8896 24.8474 16.6905C24.3897 17.3771 23.8519 18.0064 23.3484 18.6701C23.2912 18.7387 23.2226 18.8074 23.1539 18.876ZM17.6844 52.5282C18.2909 52.6083 39.0817 52.5968 39.4021 52.5167C39.4136 52.4939 39.4365 52.4595 39.4365 52.4366C39.4708 51.3267 39.4822 50.2054 39.3564 49.0955C39.1847 47.6652 38.7385 46.3149 38.0062 45.0563C36.6788 42.7449 34.7565 41.1315 32.2621 40.2047C31.0377 39.747 29.7676 39.5525 28.4632 39.5525C27.4105 39.5525 26.3921 39.7012 25.3966 40.0102C23.5544 40.5823 21.9524 41.5663 20.6251 42.9852C19.458 44.2324 18.6227 45.6742 18.1078 47.3219C17.5929 49.0154 17.6844 50.7546 17.6844 52.5282ZM52.5838 35.0213C52.5838 33.5681 52.6525 32.1492 52.3664 30.7533C52.1032 29.4603 51.6226 28.2474 50.9132 27.126C49.7461 25.2952 48.167 23.9107 46.1875 22.9953C44.803 22.3545 43.3498 22.0341 41.8279 21.9998C41.0727 21.9884 40.329 22.0685 39.5852 22.2058C39.0245 22.3088 38.4753 22.4575 37.9489 22.6978C40.2603 26.8972 40.123 30.9936 37.4912 34.9984C42.503 35.0213 47.5148 35.0213 52.5838 35.0213ZM19.1948 22.6978C18.5426 22.4575 17.8789 22.2973 17.1924 22.1714C15.4303 21.8511 13.7025 22.0113 12.0319 22.5719C9.51454 23.4187 7.54644 24.9748 6.13903 27.2519C5.15498 28.8424 4.62863 30.5587 4.57141 32.4124C4.54853 33.1791 4.55997 33.9457 4.55997 34.7123C4.55997 34.8153 4.5943 34.9069 4.60574 35.0098C9.62896 35.0098 14.6179 35.0098 19.6296 35.0098C17.0093 31.005 16.8949 26.92 19.1948 22.6978ZM21.9296 11.0036C21.9296 7.60525 19.2292 4.5158 15.4303 4.5158C11.6085 4.5158 8.93098 7.60525 8.91953 10.9922C8.90809 14.402 11.5971 17.5258 15.4188 17.5373C19.2292 17.5373 21.9524 14.4364 21.9296 11.0036ZM35.054 28.5334C35.1112 25.1007 32.2506 22.0341 28.5776 22.0227C24.9504 22.0113 22.1355 24.9405 22.044 28.3504C21.941 32.1607 25.0648 35.0442 28.5776 35.0442C32.1248 35.0442 35.1341 32.0348 35.054 28.5334ZM48.1899 11.0151C48.2357 7.69679 45.581 4.52724 41.7021 4.5158C38.0519 4.50436 35.1456 7.38785 35.1799 11.0837C35.2142 14.7796 38.1549 17.5716 41.7249 17.5373C45.6497 17.5029 48.2586 14.2762 48.1899 11.0151Z" fill="#25758A"/>
</svg>
