<svg width="64" height="63" viewBox="0 0 64 63" fill="none" xmlns="http://www.w3.org/2000/svg">
<path d="M30.0374 19.6768C30.0374 15.0141 26.7723 11.6837 22.419 11.6837C18.0656 11.6837 14.8005 15.0141 14.8005 19.6768C14.8005 22.5631 15.8889 25.2275 17.6302 26.7817C17.6302 27.0037 17.6302 27.0037 17.6302 27.0037C17.4126 28.3359 16.3242 29.4461 14.8005 29.6681C14.3652 29.8901 13.7122 29.8901 13.0592 30.1121C11.9708 30.7782 10.6648 31.4443 9.57646 31.8884C7.39977 32.9985 6.09375 34.7748 6.09375 37.2171V40.9916C6.09375 41.4356 6.52909 41.8797 6.96443 41.8797H37.6558C38.0911 41.8797 38.5265 41.4356 38.5265 40.9916V37.2171C38.5265 34.9968 37.2205 32.9985 35.0438 31.8884C33.9554 31.4443 32.6494 30.7782 31.3434 30.5562C30.9081 30.3342 30.2551 30.3342 29.602 30.1121C28.0784 29.6681 26.99 28.5579 26.7723 27.2258V27.0037C28.949 25.2275 30.0374 22.7852 30.0374 19.6768ZM16.7595 19.6768C16.7595 15.9023 18.9362 13.4599 22.419 13.4599C25.9017 13.4599 28.0784 15.9023 28.0784 19.6768C28.0784 23.6733 25.4663 26.7817 22.419 26.7817C19.1539 27.0037 16.7595 23.6733 16.7595 19.6768ZM29.602 31.8884C30.0374 32.1104 30.6904 32.1104 31.1257 32.3324C32.4317 32.7765 33.5201 32.9985 34.6084 33.6646C35.9145 34.3307 37.0028 35.6629 37.0028 37.2171V39.8814H8.05277V37.2171C8.05277 35.8849 8.92345 34.3307 10.4471 33.6646C11.5355 33.2205 12.6238 32.7765 13.9298 32.3324C14.3652 32.1104 15.0182 32.1104 15.4535 31.8884C16.1065 34.3307 19.1539 36.1069 22.6366 36.1069C25.9017 36.1069 28.949 34.3307 29.602 31.8884ZM27.8607 31.2223C27.4253 32.9985 25.031 34.3307 22.6366 34.3307C20.0246 34.3307 17.6302 32.9985 17.4126 31.2223C18.5009 30.5562 19.3716 29.4461 19.8069 28.3359C20.6776 28.78 21.7659 29.002 22.8543 29.002C23.9426 29.002 25.031 28.78 25.9017 28.3359C25.9017 29.4461 26.7723 30.5562 27.8607 31.2223Z" fill="#25758A" stroke="#25758A"/>
<path d="M32.9321 49.7083C32.9321 49.1491 32.3729 48.5899 31.8137 48.5899C31.2545 48.5899 30.6953 49.1491 30.6953 49.7083C30.6953 50.2675 31.2545 50.8266 31.8137 50.8266C32.6525 50.8266 32.9321 50.2675 32.9321 49.7083Z" fill="#25758A" stroke="#25758A"/>
<path d="M59.8734 32.0524C59.4458 32.4892 59.4458 32.926 59.6596 33.3627C60.301 34.0179 60.5148 35.1098 60.5148 35.9833V40.1326H49.3969V35.9833C49.3969 35.1098 49.8245 34.2363 50.2521 33.3627C50.6797 32.926 50.4659 32.2708 50.0383 32.0524C49.6107 31.6157 48.9693 31.8341 48.7555 32.2708C47.9003 33.3627 47.4727 34.673 47.4727 35.9833V41.0062C47.4727 41.4429 47.9003 41.8797 48.3279 41.8797H61.1562C61.5839 41.8797 62.0115 41.4429 62.0115 41.0062V35.9833C62.0115 34.673 61.5839 33.3627 60.7286 32.2708C60.9424 31.8341 60.301 31.8341 59.8734 32.0524Z" fill="#25758A" stroke="#25758A"/>
<path d="M59.7751 27.3319C59.7751 24.9822 57.6561 22.8674 55.3016 22.8674C52.9471 22.8674 50.8281 24.9822 50.8281 27.3319C50.8281 29.6817 52.9471 31.7965 55.3016 31.7965C57.8915 32.0315 59.7751 29.9167 59.7751 27.3319ZM52.7117 27.3319C52.7117 25.9221 53.8889 24.7472 55.3016 24.7472C56.7143 24.7472 57.8915 25.9221 57.8915 27.3319C57.8915 28.7418 56.7143 29.9167 55.3016 29.9167C54.1244 29.9167 52.7117 28.7418 52.7117 27.3319Z" fill="#25758A" stroke="#25758A"/>
<path d="M62.3937 45.1409H44.3882V24.0541C44.3882 23.6101 43.9381 23.1662 43.488 23.1662C43.0378 23.1662 42.5877 23.6101 42.5877 24.0541V45.3629H22.5566C22.1065 45.3629 21.6564 45.8068 21.6564 46.2507C21.6564 46.6947 22.1065 47.1386 22.5566 47.1386H61.2683V50.0242C61.2683 51.5779 59.9179 52.9097 58.3424 52.9097H43.0378H20.531H5.22643C3.65095 52.9097 2.30054 51.5779 2.30054 50.0242V49.1363V47.1386H23.9071C24.3572 47.1386 24.8073 46.6947 24.8073 46.2507C24.8073 45.8068 24.3572 45.3629 23.9071 45.3629H2.52561V8.51642C2.52561 6.96265 3.87602 5.63085 5.45149 5.63085H27.7332C28.1833 5.63085 28.6335 5.18692 28.6335 4.74298C28.6335 4.29905 28.1833 3.85512 27.7332 3.85512H5.22643C2.52561 3.85512 0.5 6.07478 0.5 8.51642V46.0288V48.9143V49.8022C0.5 52.4658 2.52561 54.4635 5.22643 54.4635H19.4057V60.2346H12.8787C12.4286 60.2346 11.9785 60.6786 11.9785 61.1225C11.9785 61.5664 12.4286 62.0104 12.8787 62.0104H34.0351C34.4852 62.0104 34.9354 61.5664 34.9354 61.1225C34.9354 60.6786 34.4852 60.2346 34.0351 60.2346H21.4313V54.4635H42.3626V60.2346H32.4596C32.0095 60.2346 31.5594 60.6786 31.5594 61.1225C31.5594 61.5664 32.0095 62.0104 32.4596 62.0104H50.9152C51.3653 62.0104 51.8155 61.5664 51.8155 61.1225C51.8155 60.6786 51.3653 60.2346 50.9152 60.2346H44.1632V54.4635H58.3424C61.0433 54.4635 63.0689 52.4658 63.0689 49.8022V46.0288C63.2939 45.5848 62.8438 45.1409 62.3937 45.1409Z" fill="#25758A" stroke="#25758A"/>
<path d="M58.555 3.63144H35.7702C35.3145 1.84204 33.7196 0.5 31.669 0.5C29.3905 0.5 27.3398 2.28939 27.3398 4.74981C27.3398 6.98655 29.1626 8.99961 31.669 8.99961C33.7196 8.99961 35.3145 7.65757 35.7702 5.86818H42.1499V23.0911C42.1499 23.5384 42.6056 23.9858 43.0613 23.9858C43.517 23.9858 43.9727 23.5384 43.9727 23.0911V5.6445H58.3271C59.9221 5.6445 61.2892 6.98655 61.2892 8.55227V21.078C61.2892 21.5254 61.7448 21.9727 62.2005 21.9727C62.6562 21.9727 63.1119 21.5254 63.1119 21.078V8.32859C63.3398 5.86818 61.0613 3.63144 58.555 3.63144ZM31.4411 6.76287C30.3019 6.76287 29.1626 5.6445 29.1626 4.52613C29.1626 3.40776 30.3019 2.28939 31.4411 2.28939C32.5803 2.28939 33.7196 3.40776 33.7196 4.52613C33.7196 5.86818 32.8082 6.76287 31.4411 6.76287Z" fill="#25758A" stroke="#25758A"/>
</svg>
